{"title":"Roadie.2011.DVDSCR.XviD-DTRG","uid":6897400,"size":742629118,"categoryP":"video","categoryS":"movies","magnet":"?xt=urn:btih:bc0d72744839ed307ba98c9b08a25d87e64ed5ef&amp;dn=Roadie.2011.DVDSCR.XviD-DTRG&amp;tr=udp%3A%2F%2Ftracker.openbittorrent.com%3A80&amp;tr=udp%3A%2F%2Fopen.demonii.com%3A1337&amp;tr=udp%3A%2F%2Ftracker.coppersurfer.tk%3A6969&amp;tr=udp%3A%2F%2Fexodus.desync.com%3A6969","seeders":0,"leechers":0,"uploader":"TvTeam","files":5,"time":1324249552,"description":". \n &lt;a href=&quot;\nhttp://www.torrenting.com&quot; rel=&quot;nofollow&quot; target=&quot;_NEW&quot;&gt;\nhttp://www.torrenting.com&lt;/a&gt;          :     Once &amp; For all ;)\n\n\n               www . Torrenting . Com \n\n(((((((((((((= Enjoy No RAR releases =))))))))))))))))))))\n\n\n...................................NFO:....................................\n\n.Roadie.2011.DVDSCR.XviD-DTRG\n &lt;a href=&quot;\nhttp://www.imdb.com/title/tt1450330/&quot; rel=&quot;nofollow&quot; target=&quot;_NEW&quot;&gt;\nhttp://www.imdb.com/title/tt1450330/&lt;/a&gt;\n\nAfter 20 years on the road with Blue Oyster Cult, Jimmy Testagros returns \nto his hometown to life with his ailing mother. Complications arise when \nhe falls for an old friend, who is now married to his longtime nemesis. \n\nRelease date: January 2012 (USA) \n\nFormat                           : AVI\nFormat/Info                      : Audio Video Interleave\nFile size                        : 700 MiB\nDuration                         : 1h 35mn\nOverall bit rate                 : 1 027 Kbps\nWriting library                  : VirtualDub build 32842/release\n\nVideo\nID                               : 0\nFormat                           : MPEG-4 Visual\nFormat profile                   : Advanced Simple@L5\nFormat settings, BVOP            : Yes\nFormat settings, QPel            : No\nFormat settings, GMC             : No warppoints\nFormat settings, Matrix          : Default (H.263)\nCodec ID                         : XVID\nCodec ID/Hint                    : XviD\nDuration                         : 1h 35mn\nBit rate                         : 868 Kbps\nWidth                            : 640 pixels\nHeight                           : 352 pixels\nDisplay aspect ratio             : 16:9\nFrame rate                       : 23.976 fps\nColor space                      : YUV\nChroma subsampling               : 4:2:0\nBit depth                        : 8 bits\nScan type                        : Progressive\nBits/(Pixel*Frame)               : 0.161\nStream size                      : 591 MiB (84%)\nWriting library                  : XviD 1.2.1 (UTC 2008-12-04)\n\nAudio\nID                               : 1\nFormat                           : MPEG Audio\nFormat version                   : Version 1\nFormat profile                   : Layer 3\nMode                             : Joint stereo\nMode extension                   : MS Stereo\nCodec ID                         : 55\nCodec ID/Hint                    : MP3\nDuration                         : 1h 35mn\nBit rate mode                    : Variable\nBit rate                         : 147 Kbps\nChannel(s)                       : 2 channels\nSampling rate                    : 44.1 KHz\nStream size                      : 100 MiB (14%)\nAlignment                        : Aligned on interleaves\nInterleave, duration             : 26 ms (0.63 video frame)\nInterleave, preload duration     : 113 ms\nWriting library                  : LAME3.98.4","torrent":{"xt":"urn:btih:bc0d72744839ed307ba98c9b08a25d87e64ed5ef","amp;dn":"Roadie.2011.DVDSCR.XviD-DTRG","amp;tr":["udp%3A%2F%2Ftracker.openbittorrent.com%3A80","udp%3A%2F%2Fopen.demonii.com%3A1337","udp%3A%2F%2Ftracker.coppersurfer.tk%3A6969","udp%3A%2F%2Fexodus.desync.com%3A6969"],"infoHash":"bc0d72744839ed307ba98c9b08a25d87e64ed5ef","infoHashBuffer":{"type":"Buffer","data":[188,13,114,116,72,57,237,48,123,169,140,155,8,162,93,135,230,78,213,239]},"announce":[],"urlList":[]}}